<svg xmlns="http://www.w3.org/2000/svg" width="512" height="512" viewBox="0 0 512 512">
  <circle cx="256" cy="256" r="256" fill="#f0d78c"/>
  <path d="M256,50 C142.2,50 50,142.2 50,256 C50,369.8 142.2,462 256,462 C369.8,462 462,369.8 462,256 C462,142.2 369.8,50 256,50 Z M256,412 C169.6,412 100,342.4 100,256 C100,169.6 169.6,100 256,100 C342.4,100 412,169.6 412,256 C412,342.4 342.4,412 256,412 Z" fill="#c19a65"/>
  <path d="M256,130 C200,130 160,180 160,240 C160,280 180,310 200,330 C220,350 240,360 256,360 C272,360 292,350 312,330 C332,310 352,280 352,240 C352,180 312,130 256,130 Z" fill="#c19a65"/>
  <path d="M200,230 C210,230 220,240 220,250 C220,260 210,270 200,270 C190,270 180,260 180,250 C180,240 190,230 200,230 Z" fill="#333"/>
  <path d="M312,230 C322,230 332,240 332,250 C332,260 322,270 312,270 C302,270 292,260 292,250 C292,240 302,230 312,230 Z" fill="#333"/>
  <path d="M256,280 C246,280 236,285 230,295 L240,300 C244,294 250,290 256,290 C262,290 268,294 272,300 L282,295 C276,285 266,280 256,280 Z" fill="#333"/>
  <path d="M220,320 C230,330 240,335 256,335 C272,335 282,330 292,320 L282,310 C274,318 266,322 256,322 C246,322 238,318 230,310 L220,320 Z" fill="#5e3a21"/>
  <path d="M160,240 C160,180 200,150 256,150 L256,130 C200,130 160,180 160,240 Z" fill="#a52a2a"/>
  <path d="M256,150 C312,150 352,180 352,240 L352,260 C352,280 332,310 312,330 C292,350 272,360 256,360 L256,150 Z" fill="#a52a2a"/>
</svg>